<?xml version="1.0" standalone="no"?>
<!DOCTYPE svg PUBLIC "-//W3C//DTD SVG 20010904//EN"
 "http://www.w3.org/TR/2001/REC-SVG-20010904/DTD/svg10.dtd">
<svg version="1.0" xmlns="http://www.w3.org/2000/svg"
 width="1000.000000pt" height="1000.000000pt" viewBox="0 0 1000.000000 1000.000000"
 preserveAspectRatio="xMidYMid meet">
<metadata>
Created by potrace 1.11, written by Peter Selinger 2001-2013
</metadata>
<g transform="translate(0.000000,1000.000000) scale(0.100000,-0.100000)"
fill="#000000" stroke="none">
<path d="M4455 9673 c-297 -37 -626 -188 -844 -388 -276 -252 -428 -525 -507
-912 l-4 -22 -508 -3 -507 -3 -79 -28 c-92 -33 -142 -60 -213 -119 -107 -89
-183 -209 -225 -353 l-23 -80 3 -2394 4 -2393 -36 -72 c-57 -112 -69 -178 -63
-335 3 -109 9 -154 31 -225 57 -189 168 -375 318 -532 97 -101 1653 -1421
1722 -1460 31 -18 56 -24 107 -24 111 0 196 56 242 159 27 61 21 171 -11 223
-15 24 -326 294 -815 707 -436 367 -819 691 -853 720 -181 153 -271 352 -220
486 19 48 80 109 130 130 85 36 210 24 316 -30 28 -14 355 -245 728 -513 372
-268 697 -497 721 -509 94 -48 232 -19 299 63 37 45 62 112 62 169 0 22 -203
796 -451 1720 -419 1564 -450 1685 -446 1745 9 140 107 246 258 280 127 28
263 -42 328 -169 11 -21 144 -500 295 -1066 222 -827 281 -1034 301 -1061 78
-102 272 -111 376 -17 65 59 72 81 79 233 6 119 9 141 33 186 34 67 114 138
178 159 69 23 168 17 233 -15 91 -43 130 -95 181 -234 40 -111 139 -174 255
-163 99 9 197 76 237 163 20 45 23 65 21 146 -2 110 13 149 85 215 54 50 70
59 142 77 132 35 287 -40 353 -171 11 -21 32 -83 46 -137 49 -185 102 -266
192 -297 59 -20 172 -17 214 5 40 21 87 62 103 91 7 12 14 93 17 200 5 175 6
181 35 233 35 65 81 107 153 140 138 63 325 -13 396 -162 14 -28 68 -213 121
-411 101 -376 114 -410 179 -460 38 -29 112 -55 156 -55 89 0 191 65 229 145
38 82 31 130 -79 542 -55 206 -111 401 -125 435 -49 120 -145 246 -247 323
-70 53 -222 131 -274 141 l-34 6 -2 1547 -3 1546 -31 88 c-43 119 -86 189
-169 272 -107 106 -213 161 -356 184 -38 7 -255 11 -529 11 l-465 0 -18 85
c-130 632 -647 1125 -1292 1230 -82 14 -366 19 -450 8z m395 -519 c328 -62
607 -276 759 -581 31 -62 81 -198 81 -219 0 -2 -466 -4 -1034 -4 l-1035 0 15
53 c117 397 459 695 874 760 67 11 265 6 340 -9z m-1770 -1712 c0 -310 3 -409
14 -445 66 -219 366 -250 469 -48 l27 55 0 418 0 418 1065 0 1064 0 3 -422 c3
-468 2 -457 70 -527 53 -54 104 -75 183 -75 79 0 130 21 183 75 68 70 67 59
70 527 l3 422 445 0 c353 0 451 -3 477 -14 42 -17 83 -66 97 -114 6 -25 10
-535 10 -1534 l0 -1497 -72 -38 c-81 -42 -167 -107 -214 -161 l-32 -35 -56 37
c-74 49 -184 100 -266 122 -101 28 -320 26 -424 -4 -131 -38 -246 -104 -345
-198 l-86 -82 -55 32 c-149 88 -281 120 -465 113 -169 -6 -292 -45 -432 -137
l-32 -21 -10 38 c-5 21 -87 326 -181 678 -153 572 -176 651 -220 740 -97 195
-241 322 -444 391 -67 22 -104 28 -215 32 -151 5 -234 -6 -352 -47 -368 -130
-583 -460 -540 -829 9 -70 111 -469 366 -1417 194 -726 352 -1321 350 -1323
-2 -2 -180 124 -397 279 -557 402 -631 436 -925 427 l-153 -5 0 2219 c0 2158
1 2220 19 2256 23 45 50 70 87 82 16 4 228 9 472 9 l442 1 0 -398z"/>
</g>
</svg>
